<svg xmlns="http://www.w3.org/2000/svg" width="600" height="2000" viewBox="0 0 600 2000">
  <defs>
    <symbol id="tree" viewBox="-20 -42 40 70">
      <polygon points="0,-38 16,-10 -16,-10" fill="#22c55e" fill-opacity="0.85"/>
      <polygon points="0,-28 18,0 -18,0" fill="#16a34a" fill-opacity="0.85"/>
      <polygon points="0,-16 20,12 -20,12" fill="#22c55e" fill-opacity="0.85"/>
      <rect x="-4" y="12" width="8" height="12" rx="2" fill="#92400e" fill-opacity="0.85"/>
      <circle cx="-6" cy="-8" r="2" fill="#ef4444" fill-opacity="0.75"/>
      <circle cx="7" cy="-2" r="2" fill="#3b82f6" fill-opacity="0.70"/>
      <circle cx="-2" cy="6" r="2" fill="#f97316" fill-opacity="0.65"/>
    </symbol>

    <symbol id="star" viewBox="-14 -14 28 28">
      <polygon points="0,-12 3,-3 12,-3 5,2 8,11 0,6 -8,11 -5,2 -12,-3 -3,-3" fill="#fbbf24" fill-opacity="0.7"/>
    </symbol>

    <symbol id="snow" viewBox="-10 -10 20 20">
      <circle cx="0" cy="0" r="2.2" fill="#93c5fd" fill-opacity="0.45"/>
      <circle cx="-5" cy="2" r="1.6" fill="#e5e7eb" fill-opacity="0.55"/>
      <circle cx="4" cy="-3" r="1.4" fill="#e5e7eb" fill-opacity="0.50"/>
    </symbol>

    <pattern id="p" width="240" height="240" patternUnits="userSpaceOnUse">
      <use href="#snow" transform="translate(26.7 178.0) rotate(-13.0) scale(0.560)"/>
      <use href="#tree" transform="translate(162.4 214.1) rotate(-2.8) scale(0.489)"/>
      <use href="#tree" transform="translate(22.5 55.8) rotate(2.2) scale(0.721)"/>
      <use href="#snow" transform="translate(156.0 130.8) rotate(3.2) scale(0.549)"/>
      <use href="#tree" transform="translate(182.1 38.3) rotate(-8.0) scale(0.640)"/>
      <use href="#tree" transform="translate(229.7 80.8) rotate(-14.5) scale(0.492)"/>
      <use href="#star" transform="translate(144.9 193.7) rotate(1.3) scale(0.778)"/>
      <use href="#star" transform="translate(18.9 70.4) rotate(13.9) scale(0.733)"/>
      <use href="#star" transform="translate(138.6 169.1) rotate(-9.8) scale(0.471)"/>
      <use href="#star" transform="translate(236.5 205.3) rotate(-4.3) scale(0.840)"/>
      <use href="#star" transform="translate(152.6 87.6) rotate(-10.5) scale(0.617)"/>
      <use href="#star" transform="translate(168.4 164.1) rotate(4.9) scale(0.482)"/>
      <use href="#snow" transform="translate(175.0 39.2) rotate(17.6) scale(0.621)"/>
      <use href="#snow" transform="translate(165.2 52.7) rotate(9.7) scale(0.596)"/>
      <use href="#tree" transform="translate(55.0 7.7) rotate(-8.4) scale(0.592)"/>
      <use href="#tree" transform="translate(219.2 136.1) rotate(-10.3) scale(0.773)"/>
      <use href="#star" transform="translate(95.0 219.5) rotate(-8.5) scale(0.656)"/>
      <use href="#tree" transform="translate(178.8 129.4) rotate(-2.6) scale(0.786)"/>
      <use href="#snow" transform="translate(95.9 52.6) rotate(0.3) scale(0.899)"/>
      <use href="#tree" transform="translate(181.4 206.7) rotate(-12.2) scale(0.519)"/>
      <use href="#snow" transform="translate(101.3 15.2) rotate(17.9) scale(0.622)"/>
      <use href="#snow" transform="translate(60.3 132.8) rotate(6.5) scale(0.874)"/>
      <use href="#tree" transform="translate(163.6 128.9) rotate(5.1) scale(0.570)"/>
      <use href="#tree" transform="translate(70.4 38.0) rotate(8.0) scale(0.451)"/>
      <use href="#snow" transform="translate(63.2 120.1) rotate(14.9) scale(0.530)"/>
      <use href="#snow" transform="translate(71.6 153.3) rotate(-12.5) scale(0.724)"/>
      <use href="#tree" transform="translate(129.5 186.9) rotate(-18.0) scale(0.689)"/>
      <use href="#star" transform="translate(117.3 26.8) rotate(17.5) scale(0.613)"/>
    </pattern>
  </defs>

  <rect width="600" height="2000" fill="url(#p)"/>
</svg>
