<svg xmlns="http://www.w3.org/2000/svg" width="600" height="2000" viewBox="0 0 600 2000">
  <defs>
    <symbol id="egg" viewBox="-18 -24 36 48">
      <path d="M0 -20
               C10 -20 14 -8 14 2
               C14 16 8 22 0 22
               C-8 22 -14 16 -14 2
               C-14 -8 -10 -20 0 -20z"
            fill="#fde68a" fill-opacity="0.65"/>
      <path d="M-10 -6 C-4 -10 4 -10 10 -6" stroke="#60a5fa" stroke-width="3" opacity="0.55" fill="none" stroke-linecap="round"/>
      <path d="M-10 2 C-4 -2 4 -2 10 2" stroke="#f472b6" stroke-width="3" opacity="0.45" fill="none" stroke-linecap="round"/>
      <path d="M-10 10 C-4 6 4 6 10 10" stroke="#34d399" stroke-width="3" opacity="0.45" fill="none" stroke-linecap="round"/>
    </symbol>

    <symbol id="flower" viewBox="-14 -14 28 28">
      <circle cx="0" cy="0" r="3" fill="#fbbf24" fill-opacity="0.6"/>
      <circle cx="0" cy="-7" r="5" fill="#f472b6" fill-opacity="0.4"/>
      <circle cx="6" cy="-3" r="5" fill="#f472b6" fill-opacity="0.4"/>
      <circle cx="6" cy="4" r="5" fill="#f472b6" fill-opacity="0.4"/>
      <circle cx="0" cy="7" r="5" fill="#f472b6" fill-opacity="0.4"/>
      <circle cx="-6" cy="4" r="5" fill="#f472b6" fill-opacity="0.4"/>
      <circle cx="-6" cy="-3" r="5" fill="#f472b6" fill-opacity="0.4"/>
    </symbol>

    <symbol id="leaf" viewBox="-14 -14 28 28">
      <path d="M-2 10 C-10 2 -8 -8 2 -10 C12 -8 10 2 2 10 Z"
            fill="#22c55e" fill-opacity="0.35"/>
      <path d="M-2 10 C0 4 0 -2 2 -10" stroke="#16a34a" stroke-width="2" opacity="0.35" fill="none" stroke-linecap="round"/>
    </symbol>

    <symbol id="spark" viewBox="-12 -12 24 24">
      <path d="M0 -10 L2 -2 L10 0 L2 2 L0 10 L-2 2 L-10 0 L-2 -2 Z" fill="#a78bfa" fill-opacity="0.25"/>
    </symbol>

    <pattern id="p" width="240" height="240" patternUnits="userSpaceOnUse">
      <use href="#spark" transform="translate(43.6 138.8) rotate(8.9) scale(0.550)"/>
      <use href="#leaf" transform="translate(128.0 152.7) rotate(-5.8) scale(0.818)"/>
      <use href="#flower" transform="translate(74.3 169.0) rotate(9.3) scale(0.710)"/>
      <use href="#flower" transform="translate(165.4 174.6) rotate(13.3) scale(0.912)"/>
      <use href="#flower" transform="translate(127.6 208.2) rotate(10.8) scale(0.940)"/>
      <use href="#spark" transform="translate(111.8 174.1) rotate(-6.9) scale(0.519)"/>
      <use href="#leaf" transform="translate(82.9 48.3) rotate(-7.3) scale(0.663)"/>
      <use href="#flower" transform="translate(217.2 97.7) rotate(10.0) scale(0.552)"/>
      <use href="#egg" transform="translate(233.1 62.1) rotate(10.9) scale(0.703)"/>
      <use href="#spark" transform="translate(147.3 79.5) rotate(11.2) scale(0.776)"/>
      <use href="#flower" transform="translate(238.8 87.8) rotate(-0.3) scale(0.552)"/>
      <use href="#flower" transform="translate(62.9 149.7) rotate(8.3) scale(0.618)"/>
      <use href="#spark" transform="translate(206.7 164.2) rotate(-14.7) scale(0.834)"/>
      <use href="#flower" transform="translate(139.4 15.7) rotate(-13.1) scale(0.921)"/>
      <use href="#flower" transform="translate(105.2 56.6) rotate(-12.2) scale(0.564)"/>
      <use href="#leaf" transform="translate(57.4 110.7) rotate(0.9) scale(0.582)"/>
      <use href="#spark" transform="translate(159.3 99.6) rotate(-7.9) scale(0.871)"/>
      <use href="#leaf" transform="translate(32.6 158.8) rotate(-16.0) scale(0.575)"/>
      <use href="#flower" transform="translate(213.8 188.2) rotate(14.0) scale(0.538)"/>
      <use href="#leaf" transform="translate(85.1 168.6) rotate(3.2) scale(0.850)"/>
      <use href="#spark" transform="translate(224.7 172.9) rotate(-15.3) scale(0.767)"/>
      <use href="#egg" transform="translate(124.3 226.8) rotate(5.4) scale(0.555)"/>
      <use href="#egg" transform="translate(227.1 41.7) rotate(12.0) scale(0.694)"/>
      <use href="#flower" transform="translate(38.9 30.1) rotate(17.7) scale(0.502)"/>
      <use href="#egg" transform="translate(142.9 134.4) rotate(-7.4) scale(0.722)"/>
      <use href="#egg" transform="translate(67.4 43.7) rotate(14.3) scale(0.502)"/>
      <use href="#flower" transform="translate(139.0 154.7) rotate(-1.1) scale(0.680)"/>
      <use href="#leaf" transform="translate(175.8 152.2) rotate(12.2) scale(0.867)"/>
      <use href="#flower" transform="translate(96.0 208.0) rotate(3.8) scale(0.882)"/>
      <use href="#flower" transform="translate(211.8 38.5) rotate(10.1) scale(0.649)"/>
    </pattern>
  </defs>

  <rect width="600" height="2000" fill="url(#p)"/>
</svg>
