<svg xmlns="http://www.w3.org/2000/svg" width="600" height="2000" viewBox="0 0 600 2000">
  <defs>
    <pattern id="p" width="160" height="160" patternUnits="userSpaceOnUse" patternTransform="rotate(8)">
      <!-- trees -->
      <g transform="translate(20 22) scale(0.55)">
        <polygon points="40,0 80,55 0,55" fill="#16a34a"/>
        <polygon points="40,28 92,92 -12,92" fill="#22c55e"/>
        <polygon points="40,64 104,140 -24,140" fill="#34d399"/>
        <rect x="34" y="140" width="12" height="18" rx="2" fill="#8b5a2b"/>
        <circle cx="10" cy="55" r="4" fill="#ef4444"/>
        <circle cx="70" cy="92" r="4" fill="#f59e0b"/>
        <circle cx="40" cy="120" r="4" fill="#3b82f6"/>
        <polygon points="40,-10 44,0 56,0 46,7 50,18 40,11 30,18 34,7 24,0 36,0" fill="#fbbf24"/>
      </g>

      <g transform="translate(105 14) scale(0.45) rotate(-10)">
        <polygon points="40,0 80,55 0,55" fill="#15803d"/>
        <polygon points="40,28 92,92 -12,92" fill="#16a34a"/>
        <polygon points="40,64 104,140 -24,140" fill="#22c55e"/>
        <rect x="34" y="140" width="12" height="18" rx="2" fill="#7c4a22"/>
        <circle cx="62" cy="55" r="4" fill="#ef4444"/>
        <circle cx="20" cy="92" r="4" fill="#f59e0b"/>
      </g>

      <!-- ornaments -->
      <g transform="translate(18 118)">
        <circle cx="18" cy="18" r="12" fill="#ef4444"/>
        <rect x="14" y="4" width="8" height="6" rx="2" fill="#9ca3af"/>
        <path d="M18 4 C18 -2, 26 -2, 26 4" fill="none" stroke="#9ca3af" stroke-width="2" stroke-linecap="round"/>
      </g>
      <g transform="translate(116 112) rotate(12)">
        <circle cx="18" cy="18" r="12" fill="#3b82f6"/>
        <rect x="14" y="4" width="8" height="6" rx="2" fill="#9ca3af"/>
        <path d="M18 4 C18 -2, 26 -2, 26 4" fill="none" stroke="#9ca3af" stroke-width="2" stroke-linecap="round"/>
      </g>

      <!-- snowflakes -->
      <g transform="translate(78 118) scale(0.9)" stroke="#e5e7eb" stroke-width="2" stroke-linecap="round" opacity="0.9">
        <path d="M12 0 v24M0 12 h24M3 3 l18 18M21 3 L3 21"/>
      </g>
      <g transform="translate(118 52) scale(0.75) rotate(15)" stroke="#f3f4f6" stroke-width="2" stroke-linecap="round" opacity="0.85">
        <path d="M12 0 v24M0 12 h24M3 3 l18 18M21 3 L3 21"/>
      </g>

      <!-- tiny candy cane -->
      <g transform="translate(62 18) rotate(18)">
        <path d="M10 6 c0 -6 10 -6 10 0 v18 c0 10 -14 10 -14 0" fill="none" stroke="#ef4444" stroke-width="4" stroke-linecap="round"/>
        <path d="M10 6 c0 -6 10 -6 10 0" fill="none" stroke="#ffffff" stroke-width="2" stroke-linecap="round"/>
        <path d="M9 14 h12" stroke="#ffffff" stroke-width="2" stroke-linecap="round"/>
        <path d="M9 20 h12" stroke="#ffffff" stroke-width="2" stroke-linecap="round"/>
      </g>
    </pattern>
  </defs>

  <rect width="600" height="2000" fill="url(#p)"/>
</svg>
