<svg xmlns="http://www.w3.org/2000/svg" width="600" height="2000" viewBox="0 0 600 2000">
  <defs>
    <symbol id="pumpkin" viewBox="-22 -22 44 44">
      <ellipse cx="0" cy="4" rx="16" ry="14" fill="#f97316" fill-opacity="0.70"/>
      <ellipse cx="-8" cy="4" rx="10" ry="13" fill="#fb923c" fill-opacity="0.55"/>
      <ellipse cx="8" cy="4" rx="10" ry="13" fill="#ea580c" fill-opacity="0.50"/>
      <rect x="-2" y="-12" width="4" height="10" rx="2" fill="#16a34a" fill-opacity="0.60"/>
      <path d="M-6 8 L-2 4 L2 8 L6 4" stroke="#111827" stroke-width="2.2" stroke-linecap="round" stroke-linejoin="round" opacity="0.55" fill="none"/>
    </symbol>

    <symbol id="bat" viewBox="-26 -18 52 36">
      <path d="M0 8
               C-6 2 -12 2 -18 8
               C-22 12 -26 8 -24 2
               C-20 -4 -16 -6 -12 -4
               C-10 -10 -6 -12 0 -8
               C6 -12 10 -10 12 -4
               C16 -6 20 -4 24 2
               C26 8 22 12 18 8
               C12 2 6 2 0 8z"
            fill="#111827" fill-opacity="0.55"/>
      <circle cx="-3" cy="2" r="1.2" fill="#a855f7" fill-opacity="0.6"/>
      <circle cx="3" cy="2" r="1.2" fill="#a855f7" fill-opacity="0.6"/>
    </symbol>

    <symbol id="candy" viewBox="-20 -12 40 24">
      <rect x="-10" y="-7" width="20" height="14" rx="7" fill="#ec4899" fill-opacity="0.55"/>
      <polygon points="-10,-5 -18,0 -10,5" fill="#ec4899" fill-opacity="0.45"/>
      <polygon points="10,-5 18,0 10,5" fill="#ec4899" fill-opacity="0.45"/>
      <path d="M-6 -5 L6 5" stroke="#fbbf24" stroke-width="2" opacity="0.6"/>
      <path d="M-6 5 L6 -5" stroke="#fbbf24" stroke-width="2" opacity="0.45"/>
    </symbol>

    <symbol id="spark" viewBox="-12 -12 24 24">
      <path d="M0 -10 L2 -2 L10 0 L2 2 L0 10 L-2 2 L-10 0 L-2 -2 Z" fill="#fbbf24" fill-opacity="0.35"/>
    </symbol>

    <pattern id="p" width="240" height="240" patternUnits="userSpaceOnUse">
      <use href="#candy" transform="translate(69.8 218.3) rotate(17.2) scale(0.851)"/>
      <use href="#bat" transform="translate(159.9 208.6) rotate(-13.8) scale(0.770)"/>
      <use href="#pumpkin" transform="translate(127.5 51.3) rotate(-3.0) scale(0.597)"/>
      <use href="#pumpkin" transform="translate(238.3 200.3) rotate(12.9) scale(0.492)"/>
      <use href="#candy" transform="translate(198.3 178.7) rotate(12.9) scale(0.925)"/>
      <use href="#candy" transform="translate(85.4 56.2) rotate(2.2) scale(0.899)"/>
      <use href="#spark" transform="translate(161.0 213.3) rotate(6.8) scale(0.769)"/>
      <use href="#candy" transform="translate(196.7 191.6) rotate(8.4) scale(0.943)"/>
      <use href="#bat" transform="translate(105.7 174.9) rotate(-9.1) scale(0.718)"/>
      <use href="#bat" transform="translate(125.4 60.8) rotate(4.6) scale(0.680)"/>
      <use href="#spark" transform="translate(213.4 138.5) rotate(2.9) scale(0.725)"/>
      <use href="#bat" transform="translate(168.4 31.5) rotate(5.7) scale(0.665)"/>
      <use href="#spark" transform="translate(93.5 172.5) rotate(-20.1) scale(0.916)"/>
      <use href="#bat" transform="translate(119.5 167.6) rotate(-10.8) scale(0.673)"/>
      <use href="#spark" transform="translate(176.7 60.3) rotate(-6.6) scale(0.830)"/>
      <use href="#candy" transform="translate(124.9 157.6) rotate(9.0) scale(0.901)"/>
      <use href="#bat" transform="translate(173.5 50.8) rotate(3.6) scale(0.759)"/>
      <use href="#pumpkin" transform="translate(86.2 174.6) rotate(-9.0) scale(0.621)"/>
      <use href="#bat" transform="translate(189.0 133.3) rotate(-14.6) scale(0.900)"/>
      <use href="#spark" transform="translate(154.4 133.5) rotate(-20.3) scale(0.722)"/>
      <use href="#spark" transform="translate(198.1 154.8) rotate(-16.4) scale(0.713)"/>
      <use href="#candy" transform="translate(29.2 72.4) rotate(4.3) scale(0.584)"/>
      <use href="#pumpkin" transform="translate(225.2 125.3) rotate(-20.4) scale(0.876)"/>
      <use href="#candy" transform="translate(80.3 119.2) rotate(0.7) scale(0.935)"/>
      <use href="#spark" transform="translate(53.5 49.7) rotate(-5.4) scale(0.849)"/>
      <use href="#bat" transform="translate(177.2 62.0) rotate(15.4) scale(0.792)"/>
      <use href="#candy" transform="translate(102.0 56.6) rotate(4.1) scale(0.836)"/>
      <use href="#spark" transform="translate(48.9 84.2) rotate(-4.5) scale(0.469)"/>
      <use href="#pumpkin" transform="translate(16.5 10.9) rotate(6.7) scale(0.911)"/>
      <use href="#candy" transform="translate(45.7 115.4) rotate(-7.4) scale(0.727)"/>
    </pattern>
  </defs>

  <rect width="600" height="2000" fill="url(#p)"/>
</svg>
